<?xml version="1.0" encoding="UTF-8" standalone="no"?>
<!-- Created with Inkscape (http://www.inkscape.org/) -->

<svg
   width="1334.823mm"
   height="430.23645mm"
   viewBox="0 0 1334.823 430.23645"
   version="1.1"
   id="svg5"
   xml:space="preserve"
   inkscape:version="1.2.2 (732a01da63, 2022-12-09)"
   sodipodi:docname="Trump MAGA logo 2024.svg"
   xmlns:inkscape="http://www.inkscape.org/namespaces/inkscape"
   xmlns:sodipodi="http://sodipodi.sourceforge.net/DTD/sodipodi-0.dtd"
   xmlns="http://www.w3.org/2000/svg"
   xmlns:svg="http://www.w3.org/2000/svg"><sodipodi:namedview
     id="namedview7"
     pagecolor="#ffffff"
     bordercolor="#000000"
     borderopacity="0.25"
     inkscape:showpageshadow="2"
     inkscape:pageopacity="0.0"
     inkscape:pagecheckerboard="0"
     inkscape:deskcolor="#d1d1d1"
     inkscape:document-units="mm"
     showgrid="false"
     inkscape:zoom="0.18462928"
     inkscape:cx="3314.7505"
     inkscape:cy="1635.7102"
     inkscape:window-width="1920"
     inkscape:window-height="1009"
     inkscape:window-x="-8"
     inkscape:window-y="-8"
     inkscape:window-maximized="1"
     inkscape:current-layer="layer1" /><defs
     id="defs2" /><g
     inkscape:label="Layer 1"
     inkscape:groupmode="layer"
     id="layer1"
     transform="translate(388.4952,-415.00927)"><path
       style="fill:#24337a;fill-opacity:1;stroke-width:0.264583"
       d="m 403.47282,465.61088 c 0.5148,-1.34379 6.01527,-18.51925 6.01501,-18.7822 -1.6e-4,-0.18367 -3.69062,-3.01285 -8.20103,-6.28707 l -8.20076,-5.95312 10.26309,-0.0692 10.26305,-0.0692 3.01376,-9.32354 c 1.65759,-5.12795 3.09343,-9.48583 3.19077,-9.68417 0.0982,-0.20009 1.14403,2.62662 2.3494,6.35 1.19483,3.69084 2.60699,8.04872 3.13817,9.68417 l 0.96573,2.97354 10.27533,0.0692 10.2753,0.0692 -8.20946,5.95313 c -4.51522,3.27422 -8.21209,6.08556 -8.21523,6.24744 -0.003,0.16187 1.35929,4.50195 3.02762,9.64462 1.66833,5.14266 2.99249,9.39113 2.94259,9.44103 -0.0499,0.0499 -3.76639,-2.58255 -8.25886,-5.8499 l -8.16811,-5.94063 -0.79375,0.59346 c -3.4231,2.55928 -15.50657,11.26398 -15.63619,11.26398 -0.0897,0 -0.10612,-0.14883 -0.0364,-0.33073 z"
       id="path581" /><path
       style="fill:#24337a;fill-opacity:1;stroke-width:0.264583"
       d="m 262.26224,464.68484 c 0.21068,-0.69122 1.61991,-5.03813 3.1316,-9.65978 l 2.74855,-8.40302 -8.29294,-6.01678 -8.29294,-6.01677 10.25977,-0.0692 10.25975,-0.0692 1.83263,-5.61889 c 1.00793,-3.09038 2.43748,-7.46457 3.17675,-9.72041 l 1.34411,-4.10152 2.80096,8.59896 c 1.54054,4.72943 2.94841,9.10361 3.12862,9.7204 l 0.32766,1.12145 10.30478,0.0692 10.30475,0.0692 -8.21936,5.95312 c -4.52064,3.27422 -8.22373,6.06218 -8.22907,6.19546 -0.005,0.13329 1.36231,4.46633 3.03924,9.62899 1.67696,5.16266 3.0053,9.43033 2.95191,9.48371 -0.0534,0.0534 -3.77217,-2.56673 -8.26395,-5.82248 l -8.16692,-5.91955 -2.78863,2.03275 c -10.82175,7.88836 -13.47581,9.80112 -13.59974,9.80112 -0.0773,0 0.0318,-0.56554 0.24247,-1.25677 z"
       id="path579" /><path
       style="fill:#24337a;fill-opacity:1;stroke-width:0.264583"
       d="m 333.02616,464.70934 c 2.76862,-8.33296 5.77834,-17.93279 5.67475,-18.10037 -0.0708,-0.11456 -3.78595,-2.86603 -8.25592,-6.11437 l -8.12721,-5.90609 10.29787,-0.13229 10.29788,-0.13229 3.05186,-9.45885 c 1.67854,-5.20237 3.12113,-9.45886 3.20577,-9.45886 0.0847,0 1.55125,4.28625 3.25909,9.525 l 3.10515,9.525 h 10.3423 10.34229 l -8.0383,5.8379 c -4.42108,3.21084 -8.18285,5.97904 -8.35946,6.15156 -0.25088,0.24504 0.36859,2.42443 2.83154,9.96163 1.73398,5.30639 3.12865,9.66602 3.09925,9.68809 -0.0294,0.0221 -3.68482,-2.61709 -8.12321,-5.86477 -4.43838,-3.24769 -8.21224,-5.91069 -8.38636,-5.91778 -0.24911,-0.0101 -11.72586,8.15552 -15.88008,11.2986 l -0.8508,0.64372 z"
       id="path577" /><path
       style="fill:#24337a;fill-opacity:1;stroke-width:0.264583"
       d="m 194.19611,456.414 c 1.75159,-5.38264 3.13505,-9.82628 3.07432,-9.87476 -0.0607,-0.0485 -3.79113,-2.75724 -8.28979,-6.01944 l -8.17938,-5.93129 10.283,-0.13229 10.28301,-0.13229 3.08144,-9.46249 c 1.69479,-5.20437 3.13661,-9.51767 3.20405,-9.58511 0.0674,-0.0674 0.39463,0.73787 0.72708,1.78958 0.33245,1.0517 1.73228,5.39339 3.11073,9.64819 l 2.50629,7.73601 10.26142,0.0692 10.26144,0.0692 -8.26868,6.01334 -8.26868,6.01334 0.99269,3.11478 c 1.31162,4.11555 5.07627,15.72017 5.24354,16.16341 0.0724,0.19174 -3.62048,-2.38402 -8.20632,-5.72391 l -8.33789,-6.07252 -7.10927,5.15964 c -3.9101,2.83779 -7.65927,5.56112 -8.3315,6.05182 l -1.22224,0.89219 z"
       id="path575" /><path
       style="fill:#24337a;fill-opacity:1;stroke-width:0.264583"
       d="m 120.40826,465.75004 c 0.48215,-1.51339 5.5226,-17.06453 5.83393,-17.99929 l 0.37478,-1.12526 -8.28837,-6.01849 -8.28836,-6.01849 10.26792,-0.0692 10.26793,-0.0692 2.41644,-7.47142 c 1.32906,-4.10929 2.75021,-8.48346 3.15812,-9.72039 l 0.74166,-2.24896 3.1601,9.65729 3.1601,9.6573 10.29134,0.13229 10.29137,0.13229 -8.24534,5.95312 c -4.53494,3.27422 -8.24741,6.07219 -8.24998,6.21771 -0.003,0.14552 1.40714,4.5781 3.13264,9.85017 2.93108,8.95547 3.09166,9.5529 2.44282,9.08821 -0.38198,-0.27356 -4.13549,-2.99295 -8.34115,-6.04308 l -7.64667,-5.5457 -8.31448,6.05548 c -4.57298,3.33051 -8.24714,5.84403 -8.1648,5.58561 z"
       id="path573" /><path
       style="fill:#24337a;fill-opacity:1;stroke-width:0.264583"
       d="m 634.64857,592.40237 v -86.5288 l 44.78073,0.097 c 48.41277,0.10486 46.03805,0.0387 54.92509,1.52954 16.13985,2.70748 29.61143,8.94019 39.18511,18.12924 10.92472,10.48582 16.41948,24.24611 16.41948,41.11854 0,21.23423 -8.74156,38.01407 -25.53229,49.01047 -9.00374,5.89662 -20.38633,10.0751 -32.94062,12.0923 -8.0649,1.29585 -10.11915,1.40677 -28.37657,1.53213 l -17.39635,0.11944 v 24.7145 24.71449 h -25.53229 -25.53229 v -86.52883 z m 83.34375,-1.152 c 11.28297,-2.21778 18.56811,-8.21161 20.66393,-17.00116 0.76708,-3.21716 0.62312,-9.56272 -0.28125,-12.39614 -2.57665,-8.07271 -8.99047,-13.01721 -19.45664,-14.99936 -2.68028,-0.50761 -4.10816,-0.56043 -18.05781,-0.66802 l -15.1474,-0.11681 v 22.92646 22.92646 l 15.0151,-0.11469 c 12.62182,-0.0964 15.37357,-0.18514 17.26407,-0.55674 z"
       id="path571" /><path
       style="fill:#24337a;fill-opacity:1;stroke-width:0.264583"
       d="m 389.37981,592.41247 v -86.51875 l 27.05365,0.009 27.05365,0.008 21.82812,33.32892 c 12.00547,18.3309 21.92703,33.29597 22.04789,33.25569 0.12089,-0.0403 10.01252,-15.01236 21.98145,-33.27132 l 21.76169,-33.19809 27.03261,-0.0674 27.03261,-0.0674 v 86.51999 86.52 h -25.39931 -25.39931 l -0.0668,-49.60444 -0.0668,-49.60445 -23.41563,33.72926 c -20.96124,30.1938 -23.48304,33.72234 -24.05877,33.66329 -0.53194,-0.0546 -4.67238,-5.87585 -23.94479,-33.6655 l -23.30164,-33.59955 -0.0668,49.54069 -0.0668,49.5407 h -25.00244 -25.00244 z"
       id="path569" /><path
       style="fill:#24337a;fill-opacity:1;stroke-width:0.264583"
       d="m -32.630606,505.87643 49.01406,0.0864 c 53.11058,0.0936 50.62472,0.03 59.99428,1.53379 13.439,2.15686 24.630476,6.53399 33.549876,13.1218 2.88237,2.1289 9.1164,8.49383 11.23323,11.46908 1.98778,2.79388 5.36316,9.37155 6.3885,12.44947 0.94268,2.82971 1.89666,6.78137 2.45581,10.17241 0.38264,2.32068 0.47871,4.38474 0.47408,10.18646 -0.005,6.43559 -0.0768,7.67334 -0.62079,10.71562 -2.38274,13.32566 -8.28633,23.61312 -18.42342,32.10424 -4.30842,3.60885 -11.566446,7.95778 -16.867186,10.10661 -0.83674,0.3392 -1.52135,0.71629 -1.52135,0.83798 0,0.16177 41.776516,57.77575 43.463316,59.94023 0.20584,0.26415 -5.6478,0.33004 -29.07729,0.32731 l -29.334986,-0.003 C 65.750966,661.46462 53.404431,644.00439 41.057894,626.54417 h -11.31197 -11.31194 c 0,17.4625 0,34.925 0,52.3875 -17.02153,0 -34.04306,0 -51.06459,0 z m 92.47188,82.49779 c 6.99283,-1.33217 11.50696,-3.53725 15.0291,-7.34147 3.33182,-3.59867 4.68548,-7.34274 4.67775,-12.93812 -0.006,-4.13312 -0.46111,-6.38915 -1.86454,-9.23627 -2.76061,-5.60052 -8.06852,-9.15301 -16.3871,-10.96761 -2.39417,-0.52227 -3.47173,-0.55308 -22.68803,-0.64885 l -20.17447,-0.10054 v 41.86769 l 19.64531,-0.1158 c 16.13601,-0.0951 20.02343,-0.18783 21.76198,-0.51903 z"
       id="path567"
       sodipodi:nodetypes="csssssscsssssccccccccsscsssccss" /><path
       style="fill:#24337a;fill-opacity:1;stroke-width:0.264583"
       d="m -178.15144,547.96247 c -18.25625,0 -36.5125,0 -54.76875,0 0,-14.02292 0,-28.04583 0,-42.06875 53.71042,0 107.42084,0 161.131254,0 0,14.02292 0,28.04583 0,42.06875 -18.432641,0 -36.865284,0 -55.297924,0 0,43.65625 0,87.3125 0,130.96875 -17.02153,0 -34.04305,0 -51.06458,0 0,-43.65625 0,-87.3125 0,-130.96875 z"
       id="path565"
       sodipodi:nodetypes="ccccccccc" /><path
       style="fill:#24337a;fill-opacity:1;stroke-width:0.264583"
       d="m 246.50482,681.83031 c -23.70985,-1.70214 -41.5851,-8.57141 -54.32701,-20.87729 -10.6164,-10.2531 -17.15764,-23.81358 -19.74495,-40.93262 -1.17332,-7.76343 -1.15753,-6.99052 -1.26016,-61.67293 l -0.0984,-52.45364 c 17.20088,0 34.40176,0 51.60264,0 l 0.0858,51.13073 c 0.0943,56.17698 -0.004,52.71112 1.67542,58.91043 3.40411,12.56387 12.26312,20.42374 25.24165,22.39481 3.36278,0.51072 10.68157,0.49769 14.20352,-0.0253 7.68533,-1.14116 13.43943,-3.92639 18.0839,-8.75334 4.48517,-4.66139 6.93079,-9.95041 8.37039,-18.10218 0.39986,-2.26417 0.45069,-7.36028 0.5388,-54.02758 l 0.0973,-51.52761 c 17.10798,0 34.21597,0 51.32395,0 l -0.0799,53.11511 c -0.0884,58.75704 0.0193,54.92262 -1.80694,64.27339 -6.72433,34.42745 -30.53561,54.18852 -70.0935,58.17076 -4.88267,0.49155 -19.08556,0.71647 -23.8125,0.37712 z"
       id="path563"
       sodipodi:nodetypes="csssccscsssssccscscc" /><path
       style="fill:#24337a;fill-opacity:1;stroke-width:0.264583"
       d="m 729.63398,738.07521 c 0,-0.0674 -0.65484,-4.41757 -1.4552,-9.66703 -0.84302,-5.52916 -1.45521,-10.43088 -1.45521,-11.65141 v -2.10693 h 5.42396 5.42395 v 1.95694 c 0,1.07633 -0.65484,6.31135 -1.4552,11.63339 -0.80037,5.32204 -1.45521,9.73971 -1.45521,9.81702 0,0.0773 -1.1311,0.14057 -2.51354,0.14057 -1.38245,0 -2.51355,-0.0551 -2.51355,-0.12255 z"
       id="path561" /><path
       style="fill:#24337a;fill-opacity:1;stroke-width:0.264583"
       d="m 727.25273,745.34151 v -4.23333 h 4.8948 4.89479 v 4.23333 4.23333 h -4.89479 -4.8948 z"
       id="path559" /><path
       style="fill:#24337a;fill-opacity:1;stroke-width:0.264583"
       d="m 683.06732,732.11234 v -17.4625 h 4.4338 4.43379 l 7.14174,9.18748 7.14171,9.18747 0.0696,-9.18747 0.0696,-9.18748 h 4.75909 4.75906 v 17.4625 17.4625 h -4.22018 -4.22019 l -7.35533,-9.41559 -7.35534,-9.4156 -0.0695,9.4156 -0.0695,9.41559 h -4.75914 -4.75916 z"
       id="path557" /><path
       style="fill:#24337a;fill-opacity:1;stroke-width:0.264583"
       d="m 661.90065,732.10634 v -17.46845 l 4.82865,0.0721 4.82864,0.0721 0.0681,17.39635 0.068,17.39636 h -4.89669 -4.8967 z"
       id="path555" /><path
       style="fill:#24337a;fill-opacity:1;stroke-width:0.264583"
       d="m 614.67522,748.58835 c 0.2199,-0.54886 3.5378,-8.43931 7.37312,-17.53437 l 6.97325,-16.53645 4.6204,-0.0721 4.62041,-0.0721 0.3347,0.73353 c 0.40556,0.88884 13.99985,33.0273 14.33018,33.87818 l 0.23326,0.60089 -5.18224,-0.0717 -5.18223,-0.0717 -1.19081,-2.97657 -1.19084,-2.97656 h -6.82419 -6.82418 l -1.19081,2.97656 -1.19084,2.97657 -5.05452,0.0719 -5.05452,0.0719 z m 21.83165,-15.35155 c -2.4311,-6.19575 -2.74328,-6.94516 -2.8919,-6.94235 -0.0864,0.003 -1.00867,2.14476 -2.04954,4.7625 l -1.89254,4.75953 h 3.92311 3.92308 z"
       id="path553" /><path
       style="fill:#24337a;fill-opacity:1;stroke-width:0.264583"
       d="m 528.55065,749.42448 c 0,-0.19971 13.97997,-33.37647 14.45818,-34.31164 l 0.37208,-0.7276 h 4.47551 c 3.28999,0 4.53213,0.0876 4.68926,0.33072 0.11759,0.18191 3.50174,8.09956 7.52036,17.5948 l 7.3066,17.26406 -5.18964,-2.7e-4 -5.18964,-2.3e-4 -1.19063,-3.04597 -1.19062,-3.04596 -6.86882,0.0697 -6.86883,0.0696 -1.15678,2.97657 -1.15679,2.97656 h -5.00512 c -2.7528,0 -5.00512,-0.0677 -5.00512,-0.15034 z m 22.972,-13.96338 c -0.21982,-0.91321 -3.54537,-9.15694 -3.69631,-9.16287 -0.13465,-0.005 -1.65415,3.61537 -3.8558,9.18753 -0.10094,0.2555 0.75284,0.33072 3.75348,0.33072 3.11717,0 3.86729,-0.0702 3.79863,-0.35538 z"
       id="path551" /><path
       style="fill:#24337a;fill-opacity:1;stroke-width:0.264583"
       d="m 482.77773,736.34565 v -13.22902 h -5.15937 -5.15938 v -4.23547 -4.23548 l 15.27969,0.0683 15.27969,0.0683 0.0729,4.16719 0.0729,4.16718 h -5.29839 -5.29839 v 13.22917 13.22917 h -4.89479 -4.89479 z"
       id="path549" /><path
       style="fill:#24337a;fill-opacity:1;stroke-width:0.264583"
       d="m 432.50848,747.12742 c 0.56375,-1.34607 3.88319,-9.23396 7.37648,-17.52864 l 6.35143,-15.08125 h 4.67826 4.67825 l 7.37471,17.4331 c 4.05609,9.58818 7.3747,17.47607 7.3747,17.52865 0,0.0525 -2.30933,0.0955 -5.13188,0.0955 h -5.13189 l -1.19091,-2.97656 -1.19092,-2.97657 -6.86922,-0.0705 -6.86924,-0.0705 -1.16163,3.04252 -1.1616,3.04253 -5.07579,0.004 -5.07579,0.005 1.02504,-2.44739 z m 21.93642,-12.03854 c -1.79469,-4.76782 -3.51991,-8.79872 -3.68995,-8.62147 -0.23265,0.24246 -3.69597,8.80964 -3.69597,9.14267 0,0.11351 1.72347,0.2064 3.8299,0.2064 h 3.82992 z"
       id="path547" /><path
       style="fill:#24337a;fill-opacity:1;stroke-width:0.264583"
       d="m 395.79405,732.17846 0.068,-17.39635 h 14.02292 14.02292 l 0.073,4.0349 0.073,4.03489 h -9.26732 -9.26729 v 2.64583 2.64584 h 8.33437 8.33438 v 3.83646 3.83645 h -8.33438 -8.33437 v 2.77813 2.77812 h 9.39271 9.3927 v 4.10105 4.10104 h -14.2894 -14.28941 z"
       id="path545" /><path
       style="fill:#24337a;fill-opacity:1;stroke-width:0.264583"
       d="m 354.98398,732.08835 v -17.48632 l 10.12031,0.1139 c 10.87001,0.12234 11.48773,0.19182 14.68507,1.65198 1.83978,0.84018 4.13914,3.04937 4.92802,4.73477 1.64677,3.5183 1.59872,7.94448 -0.1229,11.31914 -0.72938,1.42968 -2.73196,3.40871 -4.43148,4.37933 l -1.363,0.77846 1.26016,1.83049 c 0.6931,1.00677 2.54333,3.70573 4.11165,5.99768 l 2.85149,4.16719 h -5.56797 -5.56794 l -3.50639,-5.29196 -3.5064,-5.29193 -2.11666,0.0664 -2.11667,0.0664 -0.0717,5.22552 -0.0718,5.22552 h -4.75689 -4.75692 z m 18.95234,-1.10673 c 0.45561,-0.2408 1.14022,-0.80841 1.52136,-1.26135 0.90074,-1.0705 0.97726,-3.35613 0.15734,-4.70093 -0.94908,-1.55667 -2.16971,-1.89039 -6.93885,-1.89703 l -4.16719,-0.006 v 4.05694 c 0,2.23134 0.0893,4.14861 0.19844,4.26064 0.10914,0.11202 2.0439,0.15457 4.29948,0.0945 3.14452,-0.0837 4.29424,-0.21127 4.92942,-0.54695 z"
       id="path543" /><path
       style="fill:#24337a;fill-opacity:1;stroke-width:0.264583"
       d="m 245.46365,749.37638 c 0.01,-0.10914 3.31359,-7.99703 7.34251,-17.52865 l 7.32533,-17.3302 4.64582,-0.0721 4.64579,-0.072 6.84499,16.21163 c 3.76475,8.91641 7.11959,16.83671 7.45521,17.6007 l 0.61027,1.38906 -5.22219,-0.005 -5.22219,-0.005 -1.1616,-3.04252 -1.16163,-3.04252 -6.86924,0.0705 -6.86922,0.0705 -1.19092,2.97656 -1.19091,2.97656 h -4.99959 c -2.74979,0 -4.99187,-0.0893 -4.98243,-0.19843 z m 23.00158,-13.74034 c 0,-0.36558 -3.57703,-9.34371 -3.72284,-9.34413 -0.083,-2.4e-4 -0.84799,1.75575 -1.69987,3.90218 -0.85191,2.14643 -1.70828,4.28956 -1.9031,4.7625 l -0.35419,0.85989 h 3.84 c 2.11201,0 3.84,-0.0812 3.84,-0.18044 z"
       id="path541" /><path
       style="fill:#24337a;fill-opacity:1;stroke-width:0.264583"
       d="m 185.91523,732.11232 v -17.4625 h 4.7625 4.7625 v 17.4625 17.4625 h -4.7625 -4.7625 z"
       id="path539" /><path
       style="fill:#24337a;fill-opacity:1;stroke-width:0.264583"
       d="m 144.64023,732.08824 v -17.48647 l 10.12031,0.1139 c 8.47831,0.0954 10.37789,0.18683 11.70782,0.56335 6.11505,1.73123 9.14037,5.46534 9.12167,11.25882 -0.004,1.10138 -0.12433,2.51343 -0.2684,3.13793 -0.65529,2.84086 -2.60411,5.41351 -5.31124,7.01146 l -1.48506,0.87659 4.06474,5.93566 c 2.2356,3.26459 4.06474,5.96704 4.06474,6.00544 0,0.0384 -2.48247,0.0698 -5.51661,0.0698 h -5.51662 l -3.51885,-5.29166 -3.51885,-5.29167 h -2.07703 -2.07704 v 5.29167 5.29166 h -4.89479 -4.89479 z m 17.8389,-0.75853 c 2.17376,-0.50414 3.44117,-2.01872 3.44117,-4.11229 0,-1.75667 -0.57394,-2.65673 -2.23547,-3.50573 -1.05799,-0.5406 -1.53683,-0.59531 -5.21004,-0.59531 h -4.04498 v 4.23333 4.23334 l 3.50573,-0.006 c 1.92815,-0.003 3.97278,-0.11462 4.54359,-0.24702 z"
       id="path537" /><path
       style="fill:#24337a;fill-opacity:1;stroke-width:0.264583"
       d="m 106.27564,732.11234 v -17.4625 h 14.02292 14.02292 v 4.10104 4.10104 h -9.26042 -9.26042 v 2.64583 2.64584 h 8.46667 8.46667 v 3.83275 3.83273 l -8.40052,0.0699 -8.40053,0.0699 -0.0754,2.71198 -0.0754,2.71197 h 9.40198 9.40196 v 4.10105 4.10104 h -14.15521 -14.15521 z"
       id="path535" /><path
       style="fill:#24337a;fill-opacity:1;stroke-width:0.264583"
       d="m 57.921134,732.17864 0.068,-17.39635 h 5.13139 5.13138 l 4.12837,6.68649 c 3.66818,5.94117 4.16677,6.63424 4.47297,6.21771 0.18952,-0.25784 2.08658,-3.29652 4.21568,-6.75264 l 3.87107,-6.28386 h 5.11156 5.11154 v 17.4625 17.4625 h -4.89479 -4.89479 l -0.005,-9.85573 -0.005,-9.85572 -4.34748,6.61027 c -2.39112,3.63566 -4.44259,6.63487 -4.55882,6.6649 -0.11626,0.03 -2.11635,-2.90824 -4.44469,-6.52952 -2.32833,-3.62127 -4.32263,-6.59069 -4.43177,-6.59873 -0.10914,-0.008 -0.19843,4.39068 -0.19843,9.77495 v 9.78958 h -4.76441 -4.7644 l 0.068,-17.39635 z"
       id="path533" /><path
       style="fill:#24337a;fill-opacity:1;stroke-width:0.264583"
       d="m 10.761064,749.38748 c 0,-0.10316 3.30179,-8.02081 7.33734,-17.59479 l 7.33732,-17.40728 h 4.55962 c 4.37769,0 4.5716,0.0225 4.8604,0.56203 0.39182,0.73215 14.28787,33.55803 14.46273,34.16453 0.12388,0.42971 -0.23767,0.46302 -5.02454,0.46302 h -5.158 l -1.15671,-3.04641 -1.1567,-3.04638 -6.86766,0.0698 -6.86763,0.0699 -1.18232,2.97656 -1.18229,2.97656 h -4.98078 c -2.73944,0 -4.98078,-0.0844 -4.98078,-0.18751 z m 23.01875,-13.6843 c 0,-0.28308 -3.77021,-9.69825 -3.85117,-9.61731 -0.0502,0.0502 -0.88329,2.11132 -1.85134,4.58031 -0.96806,2.46896 -1.82015,4.63785 -1.89355,4.81975 -0.10316,0.25559 0.7447,0.33073 3.73129,0.33073 2.12564,0 3.86477,-0.0511 3.86477,-0.11348 z"
       id="path531" /><path
       style="fill:#24337a;fill-opacity:1;stroke-width:0.264583"
       d="m -43.743106,732.11249 v -17.4625 h 14.02292 14.02291 v 4.10105 4.10104 h -9.26041 -9.26042 v 2.64583 2.64583 h 8.33438 8.33437 v 3.83646 3.83646 h -8.33437 -8.33438 v 2.77813 2.77812 h 9.39271 9.39271 v 4.10104 4.10104 h -14.15521 -14.15521 z"
       id="path529" /><path
       style="fill:#24337a;fill-opacity:1;stroke-width:0.264583"
       d="m -85.282686,732.10649 v -17.46845 l 4.82864,0.0721 4.82865,0.0721 0.13229,6.91258 0.13229,6.91259 5.9214,-6.97873 5.92143,-6.97873 h 5.66973 c 3.97611,0 5.61721,0.085 5.49394,0.28443 -0.0967,0.15642 -3.02075,3.50284 -6.49793,7.43645 -3.47715,3.93362 -6.32211,7.23747 -6.32211,7.3419 0,0.10443 3.02813,4.61616 6.72915,10.02604 l 6.72915,9.83618 h -5.78832 -5.78832 l -4.18197,-6.12852 c -2.30008,-3.37071 -4.27551,-6.25798 -4.38984,-6.41614 -0.1315,-0.18199 -0.83518,0.39261 -1.9159,1.56445 l -1.70807,1.85208 -0.003,4.56407 -0.003,4.56406 h -4.89479 -4.89479 v -17.46848 z"
       id="path527" /><path
       style="fill:#24337a;fill-opacity:1;stroke-width:0.264583"
       d="m -132.24244,748.5885 c 0.22052,-0.54886 3.53553,-8.43931 7.36667,-17.53437 l 6.96572,-16.53645 4.63804,-0.0721 4.63806,-0.0721 0.93941,2.18877 c 1.45679,3.39426 13.438874,31.7469 13.702244,32.42302 l 0.23408,0.60089 -5.18224,-0.0717 -5.182234,-0.0717 -1.19081,-2.97657 -1.19084,-2.97656 h -6.82419 -6.82418 l -1.19081,2.97656 -1.19084,2.97657 -5.05452,0.0719 -5.05452,0.0719 z m 21.24275,-16.80676 c -0.87479,-2.21919 -1.70879,-4.36232 -1.85327,-4.7625 -0.14452,-0.40018 -0.34039,-0.72628 -0.4353,-0.72464 -0.0949,0.003 -1.0242,2.14476 -2.06507,4.7625 l -1.89254,4.75953 h 3.91838 3.91837 z"
       id="path525" /><path
       style="fill:#24337a;fill-opacity:1;stroke-width:0.264583"
       d="m -178.35178,732.17861 0.068,-17.39635 h 5.11837 5.11837 l 4.06437,6.58101 c 2.2354,3.61955 4.11496,6.63159 4.17679,6.69343 0.0618,0.0618 1.99075,-2.92939 4.28648,-6.64716 l 4.17406,-6.75957 h 5.11776 5.11776 v 17.4625 17.4625 h -4.89157 -4.89157 l -0.0694,-9.81356 -0.0694,-9.81355 -4.32906,6.63855 c -2.38098,3.6512 -4.40504,6.63528 -4.49792,6.63126 -0.0929,-0.004 -1.94878,-2.75863 -4.12425,-6.12132 -2.17547,-3.36267 -4.1658,-6.36572 -4.42297,-6.67341 -0.44872,-0.53686 -0.46793,-0.16195 -0.47637,9.2963 l -0.009,9.85573 h -4.7644 -4.7644 z"
       id="path523" /><path
       style="fill:#24337a;fill-opacity:1;stroke-width:0.264583"
       d="m 587.68502,750.08347 c -6.18566,-1.22552 -10.99322,-4.69278 -13.36172,-9.63663 -1.43523,-2.99579 -1.94799,-5.5998 -1.78996,-9.09015 0.37656,-8.31734 5.67206,-14.6735 13.94788,-16.74162 1.89834,-0.4744 2.77683,-0.54009 5.82084,-0.43537 3.14539,0.10821 3.89154,0.22725 6.08425,0.97057 2.42001,0.82039 4.60589,1.97699 6.21839,3.29033 l 0.78013,0.63537 -2.72788,3.2771 c -1.50032,1.8024 -2.83012,3.31563 -2.95508,3.3627 -0.12499,0.0471 -0.6177,-0.20751 -1.09495,-0.56573 -2.59951,-1.95115 -6.23716,-2.89272 -8.96835,-2.3214 -3.04389,0.63672 -5.74241,3.01506 -6.78119,5.97654 -0.31265,0.89138 -0.46201,2.0997 -0.45786,3.70416 0.005,2.03819 0.11203,2.60996 0.74102,3.96875 0.88577,1.91347 2.48902,3.63152 4.2799,4.58634 1.22171,0.65138 1.5658,0.70533 4.49792,0.70533 2.64583,0 3.35139,-0.0882 4.23333,-0.52917 l 1.05833,-0.52916 0.0768,-2.18282 0.0769,-2.18281 h -3.4503 -3.45027 v -3.57187 -3.57188 h 8.06979 8.06979 v 7.89916 7.89917 l -1.58882,1.1145 c -2.06404,1.44783 -5.06653,2.82443 -7.61907,3.49324 -2.36387,0.61934 -7.67149,0.87918 -9.70982,0.47535 z"
       id="path521" /><path
       style="fill:#24337a;fill-opacity:1;stroke-width:0.264583"
       d="m 326.27669,750.19751 c -3.95854,-0.63646 -7.63534,-2.35371 -10.18082,-4.75499 -2.27862,-2.14953 -3.52367,-4.00219 -4.56727,-6.79614 -0.69389,-1.85775 -0.82759,-2.62948 -0.9335,-5.3884 -0.0932,-2.42787 -0.0132,-3.71589 0.32473,-5.23528 1.44573,-6.4982 6.72909,-11.76645 13.40526,-13.36691 2.66849,-0.63971 7.17254,-0.709 9.80599,-0.15089 2.95206,0.62566 6.28481,2.17699 8.49445,3.95398 l 0.7384,0.59383 -2.72278,3.34026 c -1.49754,1.83714 -2.81495,3.34682 -2.92761,3.35487 -0.11266,0.008 -0.79928,-0.39429 -1.52585,-0.89408 -2.19856,-1.51234 -4.01974,-2.08034 -6.736,-2.10082 -2.07846,-0.0156 -2.57109,0.0743 -3.87427,0.70781 -1.8148,0.88226 -3.47408,2.6238 -4.41766,4.63664 -0.62212,1.32707 -0.7039,1.82433 -0.7039,4.27966 0,2.48798 0.075,2.9301 0.71813,4.23333 1.05106,2.12987 2.07714,3.23208 3.95837,4.25204 1.64153,0.89001 1.73411,0.90734 4.84849,0.90734 2.79443,0 3.30978,-0.072 4.29948,-0.60068 l 1.12448,-0.60069 v -2.11129 -2.1113 h -3.43958 -3.43958 v -3.57187 -3.57188 h 8.06979 8.06979 v 7.75909 c 0,8.89969 0.28572,7.90747 -2.85708,9.92177 -1.76252,1.12967 -4.17602,2.13527 -6.80021,2.83337 -1.57189,0.41815 -7.19566,0.72811 -8.73125,0.48123 z"
       id="path519" /><path
       style="fill:#24337a;fill-opacity:1;stroke-width:0.264583"
       d="m 220.04595,749.97579 c -6.34243,-1.26537 -11.36578,-5.72307 -13.42152,-11.9102 -0.62703,-1.88719 -0.70326,-2.51825 -0.70326,-5.82083 0,-3.30798 0.0755,-3.93057 0.70588,-5.82083 0.99973,-2.99781 2.39014,-5.18047 4.71496,-7.40159 3.43844,-3.28507 7.66863,-4.90575 12.7817,-4.89693 5.38652,0.009 9.44089,1.56329 12.78996,4.90233 1.05503,1.05188 1.91201,2.01522 1.90439,2.14079 -0.008,0.12558 -1.62044,1.46077 -3.58407,2.96712 l -3.57026,2.73884 -1.39626,-1.32054 c -1.94427,-1.8388 -3.33949,-2.49489 -5.62279,-2.64403 -2.47709,-0.16182 -4.16571,0.39851 -5.89992,1.9577 -3.26464,2.93518 -4.03183,8.182 -1.80681,12.3566 1.70981,3.20794 5.08931,4.82777 8.65854,4.15015 1.96437,-0.37293 3.3188,-1.11406 4.94879,-2.70786 l 1.37065,-1.34024 3.59262,2.56548 c 3.17333,2.26605 3.5611,2.62437 3.32261,3.07004 -0.52171,0.9748 -3.69692,3.92506 -5.21343,4.84407 -3.70454,2.24496 -8.97327,3.08734 -13.57178,2.16993 z"
       id="path517" /><path
       style="fill:#d02030;fill-opacity:1;stroke-width:0.264583"
       d="m 453.67356,820.08643 v -4.63021 H 695.37044 937.06732 V 629.45414 443.45206 H 722.49023 507.91315 v -4.63021 -4.63021 h 219.20729 219.2073 v 195.2625 195.26249 H 700.00065 453.67356 Z"
       id="path515" /><path
       style="fill:#d02030;fill-opacity:1;stroke-width:0.264583"
       d="m -388.4952,434.19164 c 146.1382,0 292.276396,0 438.414594,0 v 4.63021 4.63021 c -143.051391,0 -286.102784,0 -429.154174,0 0,124.00139 0,248.00277 0,372.00416 161.13125,0 322.262507,0 483.39376,0 v 4.63021 4.6302 c -164.21806,0 -328.43612,0 -492.65418,0 0,-130.175 0,-260.34999 0,-390.52499 z"
       id="path513"
       sodipodi:nodetypes="ccccccccccc" /><path
       style="fill:#24337a;fill-opacity:1;stroke-width:0.264583"
       d="M 367.68398,839.67232 V 835.041 l -12.89376,-0.0687 -12.89375,-0.0687 -1.4287,-6.19749 c -1.17562,-5.09969 -1.37231,-6.28783 -1.11035,-6.7073 0.1751,-0.28035 6.03118,-7.5225 13.01351,-16.09362 l 12.69516,-15.58388 h 10.04019 10.0402 v 16.00729 16.00729 h 3.175 3.175 v 6.35 6.35 h -3.16876 -3.16875 l -0.0724,4.56406 -0.0724,4.56407 -8.66511,0.0698 -8.6651,0.0697 z m 0,-24.24621 v -7.17444 l -5.46373,6.84371 c -3.00505,3.76405 -5.57948,6.99255 -5.72095,7.17445 -0.20399,0.2623 0.9262,0.33073 5.46375,0.33073 h 5.72093 z"
       id="path511" /><path
       style="fill:#24337a;fill-opacity:1;stroke-width:0.264583"
       d="m 286.19232,837.73327 v -6.56315 l 11.44323,-8.18536 c 6.29377,-4.50197 12.08066,-8.78078 12.85972,-9.50852 2.39086,-2.23321 3.10285,-4.2735 2.20203,-6.30997 -0.72245,-1.63322 -2.01462,-2.2928 -4.49176,-2.2928 -2.49465,0 -4.33596,0.95446 -7.75268,4.01868 -2.38715,2.14085 -2.69965,2.34241 -3.09984,1.99956 -0.24479,-0.20968 -2.85837,-2.43327 -5.80794,-4.94125 l -5.36284,-4.55999 0.77327,-0.97046 c 1.14935,-1.44249 4.99464,-5.08654 6.55875,-6.21554 7.26766,-5.24584 19.47799,-6.11198 27.85375,-1.97586 3.1283,1.54482 6.41019,4.76385 7.76655,7.61778 1.25754,2.64602 1.88981,5.84361 1.68378,8.51548 -0.35796,4.64172 -1.82197,7.92639 -4.93699,11.07644 -1.89576,1.91712 -2.7201,2.50423 -12.83383,9.1404 l -2.38125,1.56247 10.3849,0.0692 10.38489,0.0692 v 7.00839 7.00839 h -22.62187 -22.62187 z"
       id="path509" /><path
       style="fill:#24337a;fill-opacity:1;stroke-width:0.264583"
       d="m 167.92356,837.73027 v -6.56849 l 11.41381,-8.18351 c 6.27759,-4.50093 11.99566,-8.70331 12.7068,-9.33863 1.75506,-1.56792 2.65883,-3.1677 2.68267,-4.74879 0.0389,-2.57951 -1.66362,-4.01976 -4.7466,-4.01537 -2.77524,0.004 -4.77859,1.09439 -8.55438,4.65627 l -1.87111,1.76511 -1.38382,-1.15594 c -0.7611,-0.63579 -3.38175,-2.86136 -5.82366,-4.94575 l -4.43987,-3.78978 0.52223,-0.73343 c 0.95502,-1.34117 4.78711,-5.03383 6.4706,-6.23514 6.20183,-4.42555 15.40656,-6.00385 23.29281,-3.99391 4.35708,1.11048 7.36462,2.8122 9.99908,5.65771 3.07731,3.32388 4.32157,6.64501 4.27775,11.4181 -0.023,2.51084 -0.14901,3.41632 -0.72075,5.18012 -1.75464,5.41321 -4.56983,8.03624 -16.89124,15.73815 -1.26616,0.79145 -2.30796,1.52832 -2.3151,1.63746 -0.007,0.10914 4.63246,0.19843 10.31018,0.19843 h 10.32314 l -0.0705,6.94532 -0.0705,6.94531 -22.55573,0.0676 -22.55573,0.0676 z"
       id="path507" /><path
       style="fill:#24337a;fill-opacity:1;stroke-width:0.264583"
       d="m 246.13035,845.07936 c -7.31681,-1.15144 -13.12714,-4.82748 -17.00961,-10.7615 -1.64526,-2.51465 -2.38239,-4.094 -3.37,-7.22032 -2.89843,-9.17517 -1.34676,-19.97083 3.93409,-27.3713 1.65634,-2.32114 5.27889,-5.6419 7.58447,-6.95262 3.88403,-2.20805 7.97454,-3.24781 12.76453,-3.24456 3.62558,0.003 5.66785,0.31896 8.83854,1.3698 8.2401,2.73095 14.263,10.0143 16.36916,19.79486 0.60764,2.82181 0.68141,9.79852 0.13287,12.56771 -2.24361,11.32644 -9.53143,19.27251 -19.6773,21.45461 -2.34233,0.50379 -7.44323,0.69749 -9.56675,0.36332 z m 6.61892,-15.84004 c 3.09229,-1.40433 5.00605,-5.18126 5.30805,-10.47581 0.35629,-6.24626 -1.66354,-11.27207 -5.28355,-13.14678 -1.66965,-0.86468 -4.19727,-0.8133 -5.78575,0.11761 -3.34777,1.96191 -4.85529,5.60769 -4.84049,11.70625 0.0111,4.62026 0.93257,7.61992 3.09811,10.08632 1.78929,2.03792 5.11545,2.79699 7.50363,1.71241 z"
       id="path246" /></g></svg>
